<svg width="26" height="25" viewBox="0 0 26 25" fill="none" xmlns="http://www.w3.org/2000/svg">
<rect x="0.799988" y="0.560059" width="25" height="24" rx="12" fill="white"/>
<path d="M11.4562 17.5757L20.4562 8.57568L19.05 7.12256L11.4562 14.7163L7.89374 11.1538L6.48749 12.5601L11.4562 17.5757ZM6.39374 5.52881C8.36249 3.56006 10.7219 2.57568 13.4719 2.57568C16.2219 2.57568 18.5656 3.56006 20.5031 5.52881C22.4719 7.46631 23.4562 9.81006 23.4562 12.5601C23.4562 15.3101 22.4719 17.6694 20.5031 19.6382C18.5656 21.5757 16.2219 22.5444 13.4719 22.5444C10.7219 22.5444 8.36249 21.5757 6.39374 19.6382C4.45624 17.6694 3.48749 15.3101 3.48749 12.5601C3.48749 9.81006 4.45624 7.46631 6.39374 5.52881Z" fill="#17B8CA"/>
</svg>
