<svg width="77" height="78" viewBox="0 0 77 78" fill="none" xmlns="http://www.w3.org/2000/svg">
<path d="M68.9394 42.6861L56.2126 37.5141C56.1399 37.4851 56.0673 37.456 55.9947 37.4414L57.9851 24.7292C58.2175 23.2764 57.9705 21.78 57.3167 20.4724L50.8372 7.71651C49.6458 5.36293 47.2341 3.8811 44.5899 3.8811H34.5436V60.6286H52.704V72.7923L52.8711 72.9195C54.0915 73.8494 55.7767 73.8494 56.9972 72.9195L68.6053 64.0864C69.3752 63.4907 69.8692 62.6045 69.9273 61.6311L71.0605 46.0713C71.1622 44.6039 70.305 43.2382 68.9394 42.6861Z" fill="black"/>
<path d="M54.9341 74.3399C54.0509 74.3399 53.1678 74.059 52.4314 73.4972L52.2633 73.3695C52.0831 73.2319 51.9774 73.0191 51.9774 72.7921V61.3553H34.5434C34.1419 61.3553 33.817 61.0304 33.817 60.6289V3.88193C33.817 3.48042 34.1419 3.15552 34.5434 3.15552H44.5898C47.5217 3.15552 50.1635 4.77718 51.4851 7.38916L57.9639 20.144C58.6925 21.5997 58.9542 23.2681 58.7024 24.8444L56.8034 36.9707L69.2113 42.0131C70.8741 42.6856 71.9084 44.337 71.785 46.1218L70.6514 61.6844C70.5826 62.8379 69.9987 63.9275 69.0496 64.661L57.4369 73.4972C56.7005 74.059 55.8173 74.3399 54.9341 74.3399ZM53.4302 72.4274C54.3737 73.0673 55.6393 73.0389 56.5572 72.3423L68.165 63.509C68.7779 63.0337 69.1574 62.3328 69.2021 61.588L70.3364 46.0197C70.4159 44.8662 69.7448 43.7965 68.6665 43.3609C68.6665 43.3609 68.6658 43.3595 68.6651 43.3595L55.9386 38.1866C55.5556 38.1114 55.2165 37.7156 55.2768 37.3297L57.2673 24.6174C57.4723 23.3362 57.2588 21.9813 56.6665 20.798L50.189 8.04605C49.1157 5.92498 46.9705 4.60835 44.5898 4.60835H35.2698V59.9024H52.7038C53.1053 59.9024 53.4302 60.2273 53.4302 60.6289V72.4274Z" fill="black"/>
<path d="M54.3526 24.7299L47.6405 67.6901C47.103 71.1042 44.1682 73.6177 40.7105 73.6177H19.659C16.2013 73.6177 13.2665 71.1042 12.729 67.6901L6.01691 24.7299C5.7845 23.2771 6.03145 21.7807 6.68524 20.4731L13.1648 7.71724C14.3561 5.36366 16.7679 3.88184 19.4121 3.88184H40.9575C43.6016 3.88184 46.0134 5.36366 47.2047 7.71724L53.6843 20.4731C54.3381 21.7807 54.585 23.2771 54.3526 24.7299Z" fill="#DDDDDD"/>
<path d="M40.7114 74.344H19.6596C15.8253 74.344 12.609 71.5929 12.0117 67.8034L5.30013 24.8413C5.0483 23.2693 5.31006 21.6008 6.03648 20.148L12.5182 7.38749C13.8398 4.77694 16.4815 3.15527 19.4127 3.15527H40.9583C43.8895 3.15527 46.5313 4.77694 47.8536 7.38891L54.3324 20.1437C55.061 21.6008 55.3228 23.2679 55.0709 24.8427L48.3594 67.802C47.7621 71.5929 44.5457 74.344 40.7114 74.344ZM19.4127 4.6081C17.0327 4.6081 14.8875 5.92473 13.8142 8.04439L7.33395 20.8021C6.74374 21.9811 6.53092 23.3374 6.73523 24.6143L13.4475 67.5778C13.932 70.6565 16.5447 72.8911 19.6596 72.8911H40.7114C43.8264 72.8911 46.4391 70.6565 46.9236 67.5764L53.6358 24.6172C53.6358 24.6157 53.6365 24.6157 53.6365 24.6143C53.8401 23.3374 53.6266 21.9811 53.035 20.7978L46.5575 8.04581C45.4835 5.92473 43.3383 4.6081 40.9583 4.6081H19.4127Z" fill="black"/>
<path d="M19.6583 67.8073C19.0624 67.8073 18.5623 67.3774 18.4687 66.7872L11.7586 23.8336C11.7174 23.5783 11.7642 23.3101 11.882 23.0746L18.3459 10.3496C18.5517 9.94238 18.9589 9.69409 19.4115 9.69409H40.957C41.4096 9.69409 41.8168 9.94238 42.019 10.3411L48.5021 23.1058C48.6043 23.3101 48.6511 23.5783 48.6135 23.8109L41.8984 66.7943C41.8062 67.3774 41.3061 67.8073 40.7102 67.8073H19.6583Z" fill="white"/>
<path d="M40.7101 68.5343H19.6583C18.7035 68.5343 17.9011 67.8476 17.7515 66.9013L11.0406 23.9463C10.9768 23.5505 11.0449 23.1248 11.2322 22.7503L17.6982 10.021C18.026 9.37261 18.6829 8.96826 19.4114 8.96826H40.957C41.6848 8.96826 42.3403 9.36836 42.6666 10.0125L49.1497 22.7772C49.3264 23.1305 49.3917 23.5491 49.3306 23.9279L42.6163 66.907C42.4666 67.8504 41.6657 68.5343 40.7101 68.5343ZM19.4114 10.4211C19.2312 10.4211 19.0752 10.5176 18.9943 10.6779L12.5296 23.4043C12.48 23.5037 12.4594 23.62 12.4757 23.7193L19.1865 66.6757C19.2234 66.9098 19.4221 67.0815 19.6583 67.0815H40.7101C40.9464 67.0815 41.1443 66.9126 41.1812 66.6814L47.8955 23.6994C47.9083 23.62 47.8899 23.5065 47.8523 23.4313L41.3713 10.6708C41.2933 10.5162 41.1344 10.4211 40.957 10.4211H19.4114Z" fill="black"/>
<path d="M42.0273 22.2771V24.8406C42.0273 25.5597 41.4333 26.1693 40.6986 26.1693H32.789V45.7402C32.789 46.4749 32.195 47.0689 31.4602 47.0689H28.9123C28.1776 47.0689 27.5836 46.4749 27.5836 45.7402V26.1693H19.6739C18.9393 26.1693 18.3453 25.5597 18.3453 24.8406V22.2771C18.3453 21.5423 18.9393 20.9483 19.6739 20.9483H27.5836V17.5249C27.5836 16.7903 28.1776 16.1963 28.9123 16.1963H31.4602C32.195 16.1963 32.789 16.7903 32.789 17.5249V20.9483H40.6986C41.4333 20.9483 42.0273 21.5423 42.0273 22.2771Z" fill="#283E42"/>
<path d="M67.4234 46.0776L66.2992 61.6271C66.2289 62.5996 65.7441 63.495 64.9683 64.0856L53.3563 72.9246C52.1399 73.8505 50.455 73.85 49.2391 72.9235L37.6409 64.0856C36.8658 63.495 36.3816 62.6 36.3114 61.6281L35.187 46.0767C35.0808 44.6082 35.9325 43.2385 37.2965 42.6841L50.0186 37.5135C50.8385 37.1802 51.7561 37.1801 52.5761 37.513L65.3128 42.6846C66.6774 43.2386 67.5296 44.6087 67.4234 46.0776Z" fill="#5AE4A7"/>
<path d="M51.2971 74.3425C50.4153 74.3425 49.5336 74.0616 48.7972 73.5012L37.1994 64.6636C36.2595 63.9486 35.6714 62.8618 35.5863 61.6814L34.4619 46.1301C34.3321 44.3425 35.3607 42.6867 37.0214 42.0114L49.7435 36.8414C50.7452 36.4328 51.8483 36.4328 52.8485 36.8414L65.5849 42.0128C67.247 42.6867 68.2764 44.341 68.1465 46.1301L67.0222 61.6799C66.937 62.8604 66.3482 63.9486 65.4069 64.6651L53.7949 73.5026C53.0592 74.063 52.1782 74.3425 51.2971 74.3425ZM51.2964 37.9892C50.9559 37.9892 50.6154 38.0544 50.2912 38.1864L37.569 43.3564C36.4929 43.7948 35.8267 44.8674 35.9104 46.0251L37.0348 61.5764C37.0902 62.3411 37.4711 63.0448 38.0798 63.5087L49.6783 72.3463C50.6303 73.0727 51.9618 73.0713 52.9152 72.3477L64.5272 63.5087C65.1366 63.0448 65.5182 62.3397 65.5736 61.575L66.698 46.0251C66.7817 44.866 66.1148 43.7948 65.0387 43.3578L52.3016 38.1864C51.9774 38.0544 51.6369 37.9892 51.2964 37.9892Z" fill="black"/>
<path d="M40.9065 60.1212L39.9819 47.3399C39.9417 46.7848 40.2637 46.267 40.7792 46.0575L50.8148 41.9788C51.1247 41.8528 51.4715 41.8528 51.7815 41.9786L61.8321 46.0595C62.3479 46.2689 62.67 46.7868 62.6299 47.342L61.7062 60.1189C61.6796 60.4865 61.4964 60.825 61.2032 61.0482L52.0773 67.995C51.6176 68.345 50.9806 68.3448 50.521 67.9945L41.4089 61.05C41.116 60.8268 40.933 60.4885 40.9065 60.1212Z" fill="white"/>
<path d="M50.1718 57.2692C49.9789 57.2692 49.7944 57.1925 49.6582 57.0563L47.535 54.9324C47.2513 54.6487 47.2513 54.189 47.535 53.9052C47.8188 53.6215 48.2785 53.6215 48.5622 53.9052L50.1718 55.5155L55.1056 50.5824C55.3894 50.2987 55.8491 50.2987 56.1328 50.5824C56.4166 50.8662 56.4166 51.3259 56.1328 51.6096L50.6854 57.0563C50.5492 57.1925 50.3648 57.2692 50.1718 57.2692Z" fill="black"/>
</svg>
