<svg width="77" height="78" viewBox="0 0 77 78" fill="none" xmlns="http://www.w3.org/2000/svg">
<g clip-path="url(#clip0_115_132)">
<path fill-rule="evenodd" clip-rule="evenodd" d="M26.0935 30.9179H33.2456C33.6598 30.9179 33.9976 30.5802 33.9976 30.166V23.0137H43.0031V30.1658C43.0031 30.5806 43.3403 30.9178 43.7551 30.9178H50.9075V39.9247H43.7554C43.3398 39.9247 43.0034 40.2611 43.0034 40.6766V47.8276H33.9979V40.6766C33.9979 40.2617 33.6607 39.9247 33.2459 39.9247H26.0938L26.0935 30.9179ZM64.6332 38.5276V16.2422C64.6332 15.8894 64.3903 15.5849 64.0458 15.508C57.6618 14.0835 51.67 11.3207 46.2312 7.71508C46.1087 7.63372 45.9636 7.5886 45.8162 7.5886H31.1833C31.0371 7.5886 30.8913 7.63447 30.7696 7.71508C25.331 11.3213 19.339 14.0835 12.9551 15.508C12.6107 15.5849 12.3664 15.8893 12.3664 16.2422V38.5276C12.3664 45.5698 16.1542 52.3076 20.7685 57.3999C25.4097 62.5218 31.7002 66.991 38.2602 69.2085C38.3374 69.2345 38.4183 69.2494 38.4998 69.2494C38.5815 69.2494 38.6634 69.2346 38.7407 69.2085C45.3 66.9906 51.5918 62.5218 56.2325 57.3999C60.8464 52.3076 64.6332 45.5695 64.6332 38.5276ZM38.2948 74.7291L38.4998 74.7872L38.7048 74.7291C42.6685 73.606 46.5765 71.6362 50.0245 69.4016C53.9971 66.8269 57.6987 63.676 60.8194 60.1139C64.5192 55.8909 67.5347 50.9219 68.9786 45.463C69.5777 43.1975 69.8975 40.8719 69.8975 38.5274V11.1329L69.2327 11.0553C61.5272 10.1555 54.1863 6.89109 47.8734 2.46209L47.6789 2.32568H29.3221L29.1276 2.46194C22.8147 6.89034 15.4735 10.1553 7.76824 11.0553L7.10352 11.1329V38.5276C7.10352 46.6556 10.918 54.1053 16.1797 60.1122C19.3005 63.6748 23.0021 66.8261 26.9749 69.4011C30.4231 71.6359 34.3311 73.606 38.2948 74.7291Z" fill="#D9D9D9"/>
<path fill-rule="evenodd" clip-rule="evenodd" d="M50.1555 31.67V39.1729H43.7552C42.9246 39.1729 42.2513 39.8462 42.2513 40.6769V47.0758H34.7497V40.6769C34.7497 39.8462 34.075 39.1729 33.2458 39.1729H26.8454V31.67H33.2458C34.075 31.67 34.7497 30.9953 34.7497 30.1661V23.7657H42.2513V30.1661C42.2513 30.9953 42.9248 31.67 43.7552 31.67H50.1555ZM45.2593 22.2618C45.2593 21.4312 44.5872 20.7579 43.7554 20.7579H33.2458C32.414 20.7579 31.7419 21.4312 31.7419 22.2618V28.6621H25.3415C24.5109 28.6621 23.8376 29.3354 23.8376 30.1661V40.6769C23.8376 41.5061 24.5111 42.1808 25.3415 42.1808H31.7419V48.5797C31.7419 49.4115 32.414 50.0836 33.2458 50.0836H43.7554C44.5872 50.0836 45.2593 49.4115 45.2593 48.5797V42.1808H51.6596C52.4901 42.1808 53.1635 41.5061 53.1635 40.6769V30.1661C53.1635 29.3354 52.4901 28.6621 51.6596 28.6621H45.2593V22.2618ZM69.1455 38.5276V11.8022C61.8573 10.9511 54.3913 7.95351 47.4416 3.07769H29.5594C22.6085 7.95351 15.1425 10.9511 7.85547 11.8022V38.5276C7.85547 55.9077 25.8335 70.4166 38.5 74.0058C51.1675 70.4166 69.1455 55.9077 69.1455 38.5276ZM70.7684 8.93857C61.5239 8.20391 53.7154 3.86198 48.7909 0.349457C48.5366 0.166732 48.2325 0.0695801 47.9195 0.0695801H29.0816C28.7685 0.0695801 28.4632 0.166732 28.2089 0.349457C23.2857 3.86198 15.4773 8.20376 6.23275 8.93857C5.45072 9.00248 4.84766 9.65548 4.84766 10.4387V38.5276C4.84766 43.0611 5.93754 47.6252 8.08557 52.0948C10.0124 56.0993 12.7365 59.9377 16.1891 63.5065C22.4309 69.9617 30.6252 75.0127 38.1103 77.0187C38.2393 77.0533 38.3697 77.0699 38.5 77.0699C38.6316 77.0699 38.7619 77.0533 38.8896 77.0187C46.3747 75.0127 54.5703 69.9617 60.8121 63.5065C64.2634 59.9377 66.9888 56.0993 68.9156 52.0948C71.0622 47.6252 72.1535 43.0611 72.1535 38.5276V10.4387C72.1535 9.65548 71.5503 9.00248 70.7684 8.93857ZM62.3773 38.5276V17.4319C56.5828 15.9868 50.8673 13.4377 45.3653 9.84452H31.6345C26.1336 13.4375 20.417 15.9868 14.6224 17.4319V38.5276C14.6224 44.1561 17.399 50.3213 22.4397 55.8847C26.8889 60.7939 32.8573 64.8839 38.4998 66.9041C44.1423 64.884 50.1121 60.7939 54.5612 55.8847C59.602 50.3213 62.3773 44.1561 62.3773 38.5276ZM45.8163 6.83671H31.1835C30.8896 6.83671 30.5983 6.92484 30.3542 7.08846C24.6708 10.8553 18.7638 13.4428 12.7914 14.7742C12.104 14.9288 11.6146 15.537 11.6146 16.2423V38.5276C11.6146 44.9036 14.6673 51.7856 20.2114 57.9049C25.1895 63.3979 31.6779 67.7781 38.0195 69.9209C38.1754 69.9746 38.3377 70.0014 38.5 70.0014C38.6622 70.0014 38.8259 69.9746 38.9817 69.9209C45.3218 67.7781 51.8116 63.398 56.7897 57.9049C62.3327 51.7856 65.3851 44.9037 65.3851 38.5276V16.2423C65.3851 15.537 64.8971 14.9288 64.2097 14.7742C58.2375 13.4428 52.3303 10.8553 46.6469 7.08846C46.4015 6.92484 46.1115 6.83671 45.8163 6.83671Z" fill="black"/>
<path d="M42.5 23.0701H34V31.5701H27V39.0701H32.5C33.7 39.0701 34.6667 40.4034 35 41.0701V47.0701H42.5V42.0701C42.5 39.6701 43.8333 39.4034 44.5 39.5701H50V31.5701H44.5C42.9 31.5701 42.5 30.2367 42.5 29.5701V23.0701Z" fill="#5AE4A7" stroke="#5AE4A7"/>
</g>
<defs>
<clipPath id="clip0_115_132">
<rect width="77" height="77" fill="white" transform="translate(0 0.0700684)"/>
</clipPath>
</defs>
</svg>
