<svg width="76" height="77" viewBox="0 0 76 77" fill="none" xmlns="http://www.w3.org/2000/svg">
<g clip-path="url(#clip0_115_115)">
<path d="M57.5058 9.08357L38.5058 0.766636C38.1828 0.62564 37.8155 0.62564 37.4925 0.766636L18.4925 9.08357C18.0311 9.28494 17.7327 9.74042 17.7325 10.2438V30.1305C17.7393 34.5997 19.887 38.7951 23.5085 41.414L36.64 50.8848C37.451 51.4719 38.5473 51.4719 39.3583 50.8848L52.4898 41.4152C56.1113 38.7964 58.259 34.601 58.2658 30.1318V10.2438C58.2656 9.74042 57.9672 9.28494 57.5058 9.08357ZM55.7325 30.1318C55.7267 33.7873 53.97 37.2187 51.0078 39.3607L37.9992 48.7429L24.9905 39.3607C22.0283 37.2187 20.2716 33.7873 20.2658 30.1318V11.0722L37.9992 3.3101L55.7325 11.0722V30.1318Z" fill="black"/>
<path d="M37.4924 6.29691L23.5591 12.3972C23.0977 12.5985 22.7993 13.054 22.7991 13.5574V30.1318C22.803 32.9737 24.1689 35.6416 26.4724 37.3062L37.2581 45.086C37.7005 45.4052 38.2976 45.4052 38.7401 45.086L49.5257 37.3062C51.8292 35.6416 53.1952 32.9737 53.1991 30.1318V13.5574C53.1988 13.054 52.9005 12.5985 52.4391 12.3972L38.5057 6.29691C38.1827 6.15591 37.8155 6.15591 37.4924 6.29691ZM50.6657 14.3846V30.1318C50.6619 32.1598 49.687 34.0632 48.0437 35.2516L37.9991 42.497L27.9544 35.2516C26.3111 34.0632 25.3363 32.1598 25.3324 30.1318V14.3846L37.9991 8.84038L50.6657 14.3846Z" fill="black"/>
<path d="M10.4934 42.7137L7.75363 36.312C7.17099 34.9921 5.92849 34.0834 4.49417 33.9281C3.05985 33.7727 1.65161 34.3944 0.799935 35.5589C-0.0517444 36.7234 -0.217479 38.2538 0.365162 39.5736L5.32923 50.4936C5.99893 51.9718 6.93058 53.3167 8.07916 54.4633L15.8856 62.271C15.446 62.737 15.2005 63.353 15.1991 63.9937V74.127C15.1991 75.5261 16.3333 76.6604 17.7324 76.6604H31.6658C33.0649 76.6604 34.1991 75.5261 34.1991 74.127V63.9937C34.1991 62.5946 33.0649 61.4604 31.6658 61.4604V59.1031C31.7046 56.1032 30.7259 53.1787 28.8892 50.8064C27.8124 49.3902 26.3449 48.3198 24.6674 47.7272C21.9996 46.6063 19.5461 45.0318 17.4158 43.0734C15.4383 41.4448 12.6291 41.2988 10.4934 42.7137ZM31.6658 74.127H17.7324V63.9937H31.6658V74.127ZM26.912 52.3885C28.3884 54.3121 29.1709 56.6785 29.1324 59.1031V61.4604H18.6584L9.87023 52.6722C8.93686 51.7402 8.17949 50.6472 7.63456 49.446L2.6705 38.5261C2.45865 38.06 2.49808 37.5182 2.77517 37.0877C3.05226 36.6573 3.52907 36.397 4.04103 36.3968C4.64351 36.3963 5.18801 36.7558 5.42423 37.3101L8.25776 43.9183C9.01019 45.6814 10.0947 47.2832 11.4523 48.6366L17.2384 54.424C17.5565 54.7533 18.0274 54.8854 18.4703 54.7694C18.9131 54.6535 19.259 54.3077 19.3749 53.8648C19.4908 53.4219 19.3588 52.951 19.0295 52.633L13.2434 46.8456C12.6615 46.2651 12.1384 45.6287 11.6816 44.9456C12.898 44.0095 14.5997 44.0379 15.7843 45.014C18.1521 47.187 20.8888 48.9199 23.8656 50.1313C25.0785 50.5723 26.1369 51.3566 26.912 52.3885Z" fill="black"/>
<path d="M70.6689 50.4934L75.633 39.5734C76.2434 38.2492 76.0924 36.6987 75.238 35.517C74.3835 34.3354 72.9585 33.7062 71.5096 33.8709C70.0608 34.0355 68.8132 34.9685 68.2458 36.3118L65.5123 42.6894C63.3693 41.2815 60.5587 41.4356 58.5824 43.0694C56.452 45.0278 53.9985 46.6023 51.3307 47.7232C49.6533 48.3158 48.1857 49.3862 47.1089 50.8024C45.2715 53.1757 44.2927 56.1017 44.3324 59.1029V61.4602C42.9333 61.4602 41.7991 62.5944 41.7991 63.9935V74.1268C41.7991 75.526 42.9333 76.6602 44.3324 76.6602H58.2657C59.6649 76.6602 60.7991 75.526 60.7991 74.1268V63.9935C60.7977 63.3529 60.5522 62.7368 60.1125 62.2708L67.919 54.4631C69.0676 53.3166 69.9992 51.9717 70.6689 50.4934ZM58.2657 74.1268H44.3324V63.9935H58.2657V74.1268ZM57.3398 61.4602H46.8657V59.1029C46.8275 56.6787 47.61 54.3129 49.0862 52.3896C49.8595 51.3583 50.9156 50.5738 52.1262 50.1311C55.1036 48.9201 57.8407 47.1871 60.2088 45.0138C61.3921 44.0303 63.0986 43.9972 64.3191 44.934C63.861 45.6222 63.3352 46.2629 62.7497 46.8466L56.9636 52.634C56.4836 53.1311 56.4904 53.9211 56.979 54.4097C57.4676 54.8983 58.2577 54.9051 58.7547 54.4251L64.5408 48.6377C65.8984 47.2843 66.9829 45.6825 67.7353 43.9194L70.5689 37.3099C70.8058 36.7564 71.35 36.3975 71.9521 36.3979C72.464 36.3981 72.9408 36.6583 73.2179 37.0888C73.495 37.5193 73.5345 38.0611 73.3226 38.5272L68.3585 49.4471C67.8136 50.6483 67.0562 51.7413 66.1229 52.6733L57.3398 61.4602Z" fill="black"/>
<rect x="43.9997" y="63.6599" width="15" height="11" fill="#D9D9D9"/>
<path d="M31.1591 27.5136C30.5994 27.0939 29.8055 27.2073 29.3857 27.7669C28.966 28.3266 29.0794 29.1205 29.6391 29.5403L34.7057 33.3403C34.925 33.5047 35.1917 33.5936 35.4657 33.5936C35.5374 33.5934 35.609 33.5874 35.6798 33.5759C36.0229 33.517 36.3266 33.3196 36.5196 33.0299L46.6529 17.8299C46.9041 17.4534 46.9353 16.9715 46.7348 16.5658C46.5343 16.16 46.1326 15.892 45.6809 15.8628C45.2293 15.8335 44.7964 16.0474 44.5452 16.4239L35.1541 30.5105L31.1591 27.5136Z" fill="#5AE4A7"/>
<rect x="16.9997" y="63.6599" width="15" height="11" fill="#D9D9D9"/>
<path d="M27.866 67.7937H26.5994C25.8998 67.7937 25.3327 68.3608 25.3327 69.0604C25.3327 69.7599 25.8998 70.327 26.5994 70.327H27.866C28.5656 70.327 29.1327 69.7599 29.1327 69.0604C29.1327 68.3608 28.5656 67.7937 27.866 67.7937Z" fill="black"/>
<path d="M49.3992 67.7937H48.1326C47.433 67.7937 46.8659 68.3608 46.8659 69.0604C46.8659 69.7599 47.433 70.327 48.1326 70.327H49.3992C50.0988 70.327 50.6659 69.7599 50.6659 69.0604C50.6659 68.3608 50.0988 67.7937 49.3992 67.7937Z" fill="black"/>
</g>
<defs>
<clipPath id="clip0_115_115">
<rect width="76" height="76" fill="white" transform="translate(0 0.659912)"/>
</clipPath>
</defs>
</svg>
