<svg width="127" height="36" viewBox="0 0 127 36" fill="none" xmlns="http://www.w3.org/2000/svg">
<path d="M21.4035 0.0593262C9.92873 0.0593262 0.639648 9.62161 0.639648 21.2785C0.639648 26.7427 2.64318 31.9336 6.37702 35.9407L8.38055 33.8461C5.37526 30.4765 3.73601 26.1052 3.73601 21.4606C3.73601 11.443 11.659 3.24676 21.3124 3.24676C30.9658 3.24676 38.8888 11.443 38.8888 21.4606C38.8888 26.0141 37.2495 30.3854 34.3353 33.755L36.4299 35.9407C40.1638 31.9336 42.1673 26.7427 42.1673 21.2785C42.1673 9.62161 32.8782 0.0593262 21.4035 0.0593262Z" fill="white"/>
<path d="M21.3127 4.24854C12.2057 4.24854 4.73804 11.9894 4.73804 21.5517C4.73804 25.9231 6.28622 30.0212 9.10937 33.2086L10.6575 31.6604C11.204 31.114 11.295 30.1122 10.8397 29.4748C10.7486 29.2926 8.01654 25.1034 8.01654 21.3696V20.8232C8.28974 13.3555 14.1182 7.6181 21.4037 7.6181C28.5982 7.6181 34.5177 13.3555 34.7909 20.7321V21.2785C34.6088 25.1034 32.0589 29.2016 31.9678 29.2926C31.5124 29.9301 31.6035 31.0229 32.1499 31.5694L33.607 33.0265C36.3391 29.839 37.8873 25.7409 37.8873 21.4607C37.8873 11.9894 30.4196 4.24854 21.3127 4.24854Z" fill="white"/>
<path d="M14.4819 19.6394C13.389 19.6394 12.4783 18.7287 12.4783 17.6358C12.4783 16.543 13.389 15.6323 14.4819 15.6323C15.5747 15.6323 16.4854 16.543 16.4854 17.6358C16.4854 18.7287 15.5747 19.6394 14.4819 19.6394ZM19.0353 25.1035C17.9425 25.1035 17.0318 24.1928 17.0318 23.1C17.0318 22.0072 17.9425 21.0965 19.0353 21.0965C20.1282 21.0965 21.0389 22.0072 21.0389 23.1C21.0389 24.1928 20.1282 25.1035 19.0353 25.1035ZM28.3244 17.6358C29.4172 17.6358 30.3279 18.5465 30.3279 19.6394C30.3279 20.7322 29.4172 21.6429 28.3244 21.6429C27.2316 21.6429 26.3209 20.7322 26.3209 19.6394C26.3209 18.4554 27.2316 17.6358 28.3244 17.6358ZM23.5888 11.6252C24.6816 11.6252 25.5923 12.5359 25.5923 13.6288C25.5923 14.7216 24.6816 15.6323 23.5888 15.6323C22.496 15.6323 21.5853 14.7216 21.5853 13.6288C21.5853 12.5359 22.496 11.6252 23.5888 11.6252Z" fill="white"/>
<path d="M14.4819 19.6396C15.5884 19.6396 16.4854 18.7426 16.4854 17.6361C16.4854 16.5296 15.5884 15.6326 14.4819 15.6326C13.3753 15.6326 12.4783 16.5296 12.4783 17.6361C12.4783 18.7426 13.3753 19.6396 14.4819 19.6396Z" fill="white"/>
<path d="M15.9394 20.3679C15.8483 20.3679 15.8483 20.3679 15.7572 20.3679C14.9376 20.7322 13.9359 20.7322 13.1162 20.3679C13.0252 20.3679 13.0252 20.3679 12.9341 20.3679C12.843 20.3679 12.843 20.459 12.843 20.459V28.9284C13.7537 29.8391 14.7555 30.6588 15.9394 31.2962V20.3679Z" fill="white"/>
<path d="M19.0354 25.1035C20.1419 25.1035 21.0389 24.2065 21.0389 23.1C21.0389 21.9934 20.1419 21.0964 19.0354 21.0964C17.9289 21.0964 17.0319 21.9934 17.0319 23.1C17.0319 24.2065 17.9289 25.1035 19.0354 25.1035Z" fill="white"/>
<path d="M20.4928 25.8323C20.4018 25.8323 20.4018 25.8323 20.3107 25.8323C19.4911 26.1966 18.4893 26.1966 17.6697 25.8323C17.5786 25.8323 17.5786 25.8323 17.4876 25.8323C17.3965 25.8323 17.3965 25.9233 17.3965 25.9233V31.9339C18.3982 32.2982 19.4 32.4803 20.4928 32.5714V25.8323Z" fill="white"/>
<path d="M28.3244 21.6428C29.431 21.6428 30.328 20.7458 30.328 19.6393C30.328 18.5328 29.431 17.6357 28.3244 17.6357C27.2179 17.6357 26.3209 18.5328 26.3209 19.6393C26.3209 20.7458 27.2179 21.6428 28.3244 21.6428Z" fill="white"/>
<path d="M29.7816 22.3716C29.6905 22.3716 29.6905 22.3716 29.5995 22.3716C28.7798 22.7359 27.7781 22.7359 26.9584 22.3716C26.8674 22.3716 26.8674 22.3716 26.7763 22.3716C26.8674 22.3716 26.8674 22.3716 26.8674 22.4627V31.2964C28.0513 30.6589 29.053 29.8393 29.9637 28.9286V22.4627C29.8727 22.3716 29.8727 22.3716 29.7816 22.3716Z" fill="white"/>
<path d="M23.5889 15.7236C24.6954 15.7236 25.5924 14.8266 25.5924 13.7201C25.5924 12.6136 24.6954 11.7166 23.5889 11.7166C22.4823 11.7166 21.5853 12.6136 21.5853 13.7201C21.5853 14.8266 22.4823 15.7236 23.5889 15.7236Z" fill="white"/>
<path d="M25.0462 16.3613C24.9552 16.3613 24.9552 16.3613 24.8641 16.3613C24.0445 16.7256 23.0427 16.7256 22.2231 16.3613C22.132 16.3613 22.132 16.3613 22.041 16.3613L21.9499 16.4524V32.5717C23.0427 32.4806 24.0445 32.2985 25.0462 31.9342V16.3613C25.1373 16.4524 25.1373 16.4524 25.0462 16.3613Z" fill="white"/>
<path d="M55.0233 10.7158C55.0233 11.3331 54.8816 11.8997 54.5983 12.4158C54.3149 12.9217 53.8798 13.3316 53.2929 13.6452C52.706 13.9589 51.9775 14.1158 51.1073 14.1158H49.4984V17.9407H46.9029V7.28555H51.1073C51.9573 7.28555 52.6757 7.43228 53.2626 7.72572C53.8495 8.01917 54.2896 8.42392 54.5831 8.93998C54.8765 9.45604 55.0233 10.048 55.0233 10.7158ZM50.91 12.0515C51.4058 12.0515 51.7751 11.9352 52.018 11.7024C52.2608 11.4697 52.3822 11.1408 52.3822 10.7158C52.3822 10.2908 52.2608 9.96198 52.018 9.72925C51.7751 9.49652 51.4058 9.38015 50.91 9.38015H49.4984V12.0515H50.91ZM58.97 10.8828C59.2735 10.4173 59.653 10.0531 60.1083 9.78996C60.5637 9.51675 61.0696 9.38015 61.6261 9.38015V12.1274H60.9128C60.2652 12.1274 59.7795 12.2691 59.4557 12.5524C59.1319 12.8256 58.97 13.3113 58.97 14.0095V17.9407H56.3745V9.47122H58.97V10.8828ZM66.722 18.0621C65.8923 18.0621 65.1435 17.885 64.4756 17.5309C63.8179 17.1767 63.2968 16.6708 62.9123 16.013C62.5379 15.3553 62.3507 14.5863 62.3507 13.7059C62.3507 12.8357 62.5429 12.0718 62.9274 11.414C63.312 10.7462 63.8381 10.2352 64.506 9.88103C65.1738 9.52687 65.9226 9.34979 66.7524 9.34979C67.5821 9.34979 68.3309 9.52687 68.9987 9.88103C69.6666 10.2352 70.1928 10.7462 70.5773 11.414C70.9618 12.0718 71.154 12.8357 71.154 13.7059C71.154 14.5762 70.9567 15.3452 70.5621 16.013C70.1776 16.6708 69.6463 17.1767 68.9684 17.5309C68.3005 17.885 67.5517 18.0621 66.722 18.0621ZM66.722 15.8157C67.2178 15.8157 67.6378 15.6336 67.9818 15.2693C68.336 14.905 68.513 14.3839 68.513 13.7059C68.513 13.028 68.341 12.5069 67.997 12.1426C67.6631 11.7783 67.2482 11.5962 66.7524 11.5962C66.2464 11.5962 65.8265 11.7783 65.4926 12.1426C65.1586 12.4967 64.9917 13.0179 64.9917 13.7059C64.9917 14.3839 65.1536 14.905 65.4774 15.2693C65.8113 15.6336 66.2262 15.8157 66.722 15.8157ZM77.2514 15.7398V17.9407H75.9309C74.9899 17.9407 74.2563 17.713 73.7301 17.2577C73.2039 16.7922 72.9408 16.0383 72.9408 14.9961V11.6265H71.9087V9.47122H72.9408V7.40698H75.5363V9.47122H77.2362V11.6265H75.5363V15.0265C75.5363 15.2794 75.597 15.4616 75.7184 15.5729C75.8398 15.6842 76.0422 15.7398 76.3256 15.7398H77.2514ZM86.6809 13.5693C86.6809 13.8122 86.6657 14.0652 86.6354 14.3283H80.7614C80.8019 14.8544 80.9688 15.2592 81.2623 15.5425C81.5658 15.8157 81.9352 15.9523 82.3703 15.9523C83.0179 15.9523 83.4682 15.6791 83.7211 15.1327H86.4836C86.3419 15.6892 86.0839 16.1901 85.7095 16.6353C85.3452 17.0806 84.8848 17.4297 84.3283 17.6826C83.7717 17.9356 83.1494 18.0621 82.4614 18.0621C81.6316 18.0621 80.8929 17.885 80.2453 17.5309C79.5977 17.1767 79.0918 16.6708 78.7275 16.013C78.3632 15.3553 78.1811 14.5863 78.1811 13.7059C78.1811 12.8256 78.3582 12.0566 78.7123 11.3989C79.0766 10.7411 79.5825 10.2352 80.2302 9.88103C80.8778 9.52687 81.6215 9.34979 82.4614 9.34979C83.281 9.34979 84.0095 9.52181 84.647 9.86585C85.2845 10.2099 85.7803 10.7007 86.1345 11.3381C86.4988 11.9756 86.6809 12.7194 86.6809 13.5693ZM84.0247 12.8863C84.0247 12.4411 83.8729 12.0869 83.5694 11.8238C83.2658 11.5608 82.8863 11.4292 82.431 11.4292C81.9959 11.4292 81.6265 11.5557 81.323 11.8087C81.0295 12.0616 80.8474 12.4209 80.7766 12.8863H84.0247ZM87.5341 13.7059C87.5341 12.8256 87.7112 12.0566 88.0653 11.3989C88.4296 10.7411 88.9305 10.2352 89.568 9.88103C90.2156 9.52687 90.9542 9.34979 91.784 9.34979C92.8465 9.34979 93.7319 9.62806 94.4402 10.1846C95.1586 10.7411 95.6291 11.5253 95.8518 12.5372H93.0893C92.8566 11.8896 92.4063 11.5658 91.7385 11.5658C91.2629 11.5658 90.8834 11.753 90.6001 12.1274C90.3168 12.4917 90.1751 13.0179 90.1751 13.7059C90.1751 14.394 90.3168 14.9253 90.6001 15.2997C90.8834 15.6639 91.2629 15.8461 91.7385 15.8461C92.4063 15.8461 92.8566 15.5223 93.0893 14.8747H95.8518C95.6291 15.8663 95.1586 16.6455 94.4402 17.2121C93.7217 17.7788 92.8363 18.0621 91.784 18.0621C90.9542 18.0621 90.2156 17.885 89.568 17.5309C88.9305 17.1767 88.4296 16.6708 88.0653 16.013C87.7112 15.3553 87.5341 14.5863 87.5341 13.7059ZM101.961 15.7398V17.9407H100.64C99.699 17.9407 98.9654 17.713 98.4392 17.2577C97.913 16.7922 97.6499 16.0383 97.6499 14.9961V11.6265H96.6178V9.47122H97.6499V7.40698H100.245V9.47122H101.945V11.6265H100.245V15.0265C100.245 15.2794 100.306 15.4616 100.428 15.5729C100.549 15.6842 100.751 15.7398 101.035 15.7398H101.961ZM104.712 8.59088C104.256 8.59088 103.882 8.45934 103.588 8.19625C103.305 7.92304 103.163 7.58912 103.163 7.19448C103.163 6.78973 103.305 6.45581 103.588 6.19272C103.882 5.91951 104.256 5.78291 104.712 5.78291C105.157 5.78291 105.521 5.91951 105.804 6.19272C106.098 6.45581 106.245 6.78973 106.245 7.19448C106.245 7.58912 106.098 7.92304 105.804 8.19625C105.521 8.45934 105.157 8.59088 104.712 8.59088ZM106.002 9.47122V17.9407H103.406V9.47122H106.002ZM111.738 18.0621C110.908 18.0621 110.159 17.885 109.492 17.5309C108.834 17.1767 108.313 16.6708 107.928 16.013C107.554 15.3553 107.367 14.5863 107.367 13.7059C107.367 12.8357 107.559 12.0718 107.943 11.414C108.328 10.7462 108.854 10.2352 109.522 9.88103C110.19 9.52687 110.939 9.34979 111.768 9.34979C112.598 9.34979 113.347 9.52687 114.015 9.88103C114.682 10.2352 115.209 10.7462 115.593 11.414C115.978 12.0718 116.17 12.8357 116.17 13.7059C116.17 14.5762 115.973 15.3452 115.578 16.013C115.193 16.6708 114.662 17.1767 113.984 17.5309C113.316 17.885 112.568 18.0621 111.738 18.0621ZM111.738 15.8157C112.234 15.8157 112.654 15.6336 112.998 15.2693C113.352 14.905 113.529 14.3839 113.529 13.7059C113.529 13.028 113.357 12.5069 113.013 12.1426C112.679 11.7783 112.264 11.5962 111.768 11.5962C111.262 11.5962 110.842 11.7783 110.508 12.1426C110.175 12.4967 110.008 13.0179 110.008 13.7059C110.008 14.3839 110.169 14.905 110.493 15.2693C110.827 15.6336 111.242 15.8157 111.738 15.8157ZM122.708 9.38015C123.699 9.38015 124.488 9.70395 125.075 10.3516C125.672 10.989 125.971 11.8694 125.971 12.9926V17.9407H123.391V13.3417C123.391 12.775 123.244 12.3348 122.95 12.0212C122.657 11.7075 122.262 11.5506 121.766 11.5506C121.271 11.5506 120.876 11.7075 120.583 12.0212C120.289 12.3348 120.142 12.775 120.142 13.3417V17.9407H117.547V9.47122H120.142V10.5944C120.405 10.22 120.76 9.92657 121.205 9.71407C121.65 9.49146 122.151 9.38015 122.708 9.38015ZM54.2036 25.4578C54.2036 26.3381 53.9001 27.0718 53.2929 27.6586C52.6959 28.2354 51.7802 28.5238 50.5457 28.5238H48.5118V32.9407H47.1306V22.3614H50.5457C51.7397 22.3614 52.6453 22.6498 53.2626 23.2266C53.89 23.8034 54.2036 24.5471 54.2036 25.4578ZM50.5457 27.3854C51.3147 27.3854 51.8814 27.2185 52.2456 26.8846C52.6099 26.5506 52.7921 26.0751 52.7921 25.4578C52.7921 24.1525 52.0433 23.4998 50.5457 23.4998H48.5118V27.3854H50.5457ZM61.5514 21.7088V32.9407H60.1702V21.7088H61.5514ZM67.6393 28.7515C67.6393 27.9015 67.8114 27.1578 68.1554 26.5203C68.4994 25.8727 68.97 25.3718 69.567 25.0176C70.1741 24.6635 70.847 24.4864 71.5857 24.4864C72.3142 24.4864 72.9467 24.6432 73.483 24.9569C74.0193 25.2706 74.4189 25.6652 74.682 26.1408V24.623H76.0784V32.9407H74.682V31.3925C74.4088 31.8782 73.999 32.283 73.4526 32.6068C72.9163 32.9204 72.2889 33.0773 71.5705 33.0773C70.8318 33.0773 70.164 32.8951 69.567 32.5309C68.97 32.1666 68.4994 31.6556 68.1554 30.9979C67.8114 30.3401 67.6393 29.5913 67.6393 28.7515ZM74.682 28.7667C74.682 28.1393 74.5555 27.5929 74.3026 27.1274C74.0496 26.6619 73.7056 26.3078 73.2705 26.0649C72.8455 25.812 72.3749 25.6855 71.8589 25.6855C71.3428 25.6855 70.8723 25.8069 70.4473 26.0498C70.0223 26.2926 69.6833 26.6468 69.4304 27.1122C69.1774 27.5777 69.0509 28.1241 69.0509 28.7515C69.0509 29.389 69.1774 29.9455 69.4304 30.4211C69.6833 30.8866 70.0223 31.2458 70.4473 31.4987C70.8723 31.7416 71.3428 31.863 71.8589 31.863C72.3749 31.863 72.8455 31.7416 73.2705 31.4987C73.7056 31.2458 74.0496 30.8866 74.3026 30.4211C74.5555 29.9455 74.682 29.394 74.682 28.7667ZM86.7151 24.4712C87.7269 24.4712 88.5466 24.7798 89.1739 25.3971C89.8013 26.0042 90.115 26.8846 90.115 28.0381V32.9407H88.7489V28.2354C88.7489 27.4057 88.5415 26.7733 88.1266 26.3381C87.7118 25.8929 87.1451 25.6703 86.4267 25.6703C85.6981 25.6703 85.1163 25.898 84.6812 26.3533C84.2562 26.8087 84.0437 27.4715 84.0437 28.3417V32.9407H82.6625V24.623H84.0437V25.8069C84.3169 25.3819 84.6862 25.0531 85.1517 24.8203C85.6273 24.5876 86.1484 24.4712 86.7151 24.4712ZM99.5657 33.0773C98.9282 33.0773 98.3565 32.971 97.8505 32.7585C97.3446 32.5359 96.9449 32.2324 96.6515 31.8478C96.358 31.4532 96.1961 31.0029 96.1658 30.497H97.5925C97.633 30.9118 97.8252 31.2508 98.1693 31.5139C98.5234 31.777 98.9838 31.9086 99.5505 31.9086C100.077 31.9086 100.492 31.7922 100.795 31.5595C101.099 31.3267 101.25 31.0333 101.25 30.6791C101.25 30.3148 101.089 30.0467 100.765 29.8747C100.441 29.6925 99.9401 29.5155 99.2621 29.3434C98.6449 29.1815 98.1389 29.0196 97.7443 28.8577C97.3598 28.6857 97.0259 28.4378 96.7425 28.114C96.4693 27.7801 96.3327 27.345 96.3327 26.8087C96.3327 26.3837 96.4592 25.9941 96.7122 25.6399C96.9651 25.2858 97.3244 25.0075 97.7898 24.8051C98.2553 24.5926 98.7865 24.4864 99.3835 24.4864C100.304 24.4864 101.048 24.7191 101.615 25.1846C102.181 25.6501 102.485 26.2875 102.525 27.0971H101.144C101.114 26.6619 100.937 26.3128 100.613 26.0498C100.299 25.7867 99.8743 25.6551 99.338 25.6551C98.8422 25.6551 98.4475 25.7614 98.1541 25.9739C97.8607 26.1864 97.7139 26.4646 97.7139 26.8087C97.7139 27.0819 97.7999 27.3095 97.972 27.4917C98.1541 27.6637 98.3767 27.8054 98.6398 27.9167C98.913 28.0179 99.2874 28.1342 99.763 28.2658C100.36 28.4277 100.846 28.5896 101.22 28.7515C101.595 28.9033 101.913 29.136 102.176 29.4497C102.45 29.7634 102.591 30.1732 102.601 30.6791C102.601 31.1345 102.475 31.5443 102.222 31.9086C101.969 32.2728 101.61 32.5612 101.144 32.7737C100.689 32.9761 100.163 33.0773 99.5657 33.0773Z" fill="white"/>
</svg>
