<svg width="128" height="174" viewBox="0 0 128 174" fill="none" xmlns="http://www.w3.org/2000/svg">
<g clip-path="url(#clip0_145_25)">
<rect x="46.39" y="-15.0002" width="153" height="153" rx="76.5" transform="rotate(45 46.39 -15.0002)" stroke="#17B8CA" stroke-width="7"/>
</g>
<path d="M25.6128 95.1799H19.4568L9.1608 79.5919V95.1799H3.0048V69.9079H9.1608L19.4568 85.5679V69.9079H25.6128V95.1799ZM42.0271 95.4319C39.6511 95.4319 37.4671 94.8799 35.4751 93.7759C33.5071 92.6719 31.9351 91.1359 30.7591 89.1679C29.6071 87.1759 29.0311 84.9439 29.0311 82.4719C29.0311 79.9999 29.6071 77.7799 30.7591 75.8119C31.9351 73.8439 33.5071 72.3079 35.4751 71.2039C37.4671 70.0999 39.6511 69.5479 42.0271 69.5479C44.4031 69.5479 46.5751 70.0999 48.5431 71.2039C50.5351 72.3079 52.0951 73.8439 53.2231 75.8119C54.3751 77.7799 54.9511 79.9999 54.9511 82.4719C54.9511 84.9439 54.3751 87.1759 53.2231 89.1679C52.0711 91.1359 50.5111 92.6719 48.5431 93.7759C46.5751 94.8799 44.4031 95.4319 42.0271 95.4319ZM42.0271 89.8159C44.0431 89.8159 45.6511 89.1439 46.8511 87.7999C48.0751 86.4559 48.6871 84.6799 48.6871 82.4719C48.6871 80.2399 48.0751 78.4639 46.8511 77.1439C45.6511 75.7999 44.0431 75.1279 42.0271 75.1279C39.9871 75.1279 38.3551 75.7879 37.1311 77.1079C35.9311 78.4279 35.3311 80.2159 35.3311 82.4719C35.3311 84.7039 35.9311 86.4919 37.1311 87.8359C38.3551 89.1559 39.9871 89.8159 42.0271 89.8159ZM93.1519 69.9079L86.5639 95.1799H79.1119L75.0799 78.5479L70.9039 95.1799H63.4519L57.0439 69.9079H63.6319L67.2679 88.3039L71.7679 69.9079H78.5359L82.8559 88.3039L86.5279 69.9079H93.1519Z" fill="white"/>
<rect x="33.89" y="3.67993" width="27" height="27" rx="13.5" fill="#17B8CA"/>
<rect x="33.89" y="3.67993" width="27" height="27" rx="13.5" stroke="#17B8CA" stroke-width="7"/>
<path d="M44.5619 21.3987L55.1556 10.7581L56.5619 12.1643L44.5619 24.1643L38.9837 18.5862L40.3431 17.1799L44.5619 21.3987Z" fill="white"/>
<defs>
<clipPath id="clip0_145_25">
<rect width="80" height="160" fill="white" transform="translate(47.39 13.1799)"/>
</clipPath>
</defs>
</svg>
